# xmcd
#
# Track frame offsets:
#	150
#	13790
#	42747
#	66912
#
# Disc length: 1236 seconds
#
# Revision: 1
# Processed by: cddbd v1.5PL3 Copyright (c) Steve Scherf et al.
# Submitted via: CDex 1.50Beta5
#
DISCID=3504d204
DTITLE=福岡ユタカ - NEW STREAM 2000
DYEAR=2000
DGENRE=Rock
TTITLE0=NS2000
TTITLE1=5scenes from a Dizzy day
TTITLE2=DO-QU
TTITLE3=NS2000
EXTD=
EXTT0=
EXTT1=
EXTT2=
EXTT3=
PLAYORDER=
